<svg width="894" height="885" viewBox="0 0 894 885" fill="none" xmlns="http://www.w3.org/2000/svg">
<path d="M894 442.057C894 198.019 693.744 0 447 0C200.256 0 0 198.019 0 442.057C0 576.467 61.686 697.601 158.238 778.911C159.132 779.796 160.026 779.796 160.026 780.681C168.072 786.876 176.118 793.071 185.058 799.266C189.528 801.921 193.104 805.405 197.574 808.945C271.445 858.526 358.645 885.02 447.894 885C537.143 885.02 624.343 858.526 698.214 808.945C702.684 806.29 706.26 802.806 710.73 800.095C718.776 793.956 727.716 787.761 735.762 781.566C736.656 780.681 737.55 780.681 737.55 779.796C832.314 697.546 894 576.467 894 442.057ZM447 829.3C362.964 829.3 286.08 802.75 222.606 758.556C223.5 751.476 225.288 744.451 227.076 737.371C232.403 718.183 240.216 699.759 250.32 682.556C260.154 665.741 271.776 650.696 286.08 637.421C299.49 624.146 315.582 611.812 331.674 602.077C348.66 592.342 366.54 585.262 386.208 579.952C406.029 574.663 426.472 572.003 447 572.042C507.94 571.615 566.641 594.755 610.602 636.536C631.164 656.891 647.256 680.786 658.878 708.166C665.136 724.096 669.606 740.911 672.288 758.556C606.31 804.474 527.652 829.174 447 829.3ZM310.218 419.988C302.341 402.134 298.38 382.829 298.596 363.348C298.596 343.933 302.172 324.463 310.218 306.763C318.264 289.063 328.992 273.188 342.402 259.913C355.812 246.638 371.904 236.074 389.784 228.109C407.664 220.144 427.332 216.604 447 216.604C467.562 216.604 486.336 220.144 504.216 228.109C522.096 236.074 538.188 246.694 551.598 259.913C565.008 273.188 575.736 289.118 583.782 306.763C591.828 324.463 595.404 343.933 595.404 363.348C595.404 383.703 591.828 402.288 583.782 419.932C576.017 437.371 565.111 453.264 551.598 466.837C537.882 480.195 521.827 490.972 504.216 498.642C467.273 513.671 425.833 513.671 388.89 498.642C371.279 490.972 355.224 480.195 341.508 466.837C327.976 453.462 317.331 437.504 310.218 419.932V419.988ZM725.034 713.476C725.034 711.706 724.14 710.821 724.14 709.051C715.347 681.362 702.388 655.145 685.698 631.282C668.993 607.242 648.463 586.04 624.906 568.502C606.916 555.104 587.415 543.818 566.796 534.872C576.176 528.746 584.868 521.644 592.722 513.687C606.05 500.661 617.756 486.103 627.588 470.322C647.388 438.12 657.613 401.043 657.09 363.348C657.367 335.443 651.891 307.777 640.998 282.038C630.243 257.239 614.763 234.722 595.404 215.719C576.073 196.914 553.323 181.9 528.354 171.469C502.311 160.705 474.326 155.303 446.106 155.594C417.882 155.321 389.897 160.741 363.858 171.524C338.673 181.933 315.868 197.266 296.808 216.604C277.813 235.719 262.646 258.222 252.108 282.923C241.215 308.661 235.74 336.328 236.016 364.233C236.016 383.703 238.698 402.288 244.062 419.932C249.426 438.517 256.578 455.332 266.412 471.207C275.352 487.137 287.868 501.297 301.278 514.572C309.324 522.537 318.264 529.562 328.098 535.757C307.415 544.942 287.908 556.528 269.988 570.272C246.744 587.972 226.182 609.157 209.196 632.167C192.336 655.931 179.363 682.175 170.754 709.936C169.86 711.706 169.86 713.476 169.86 714.361C99.234 643.616 55.428 548.147 55.428 442.057C55.428 228.994 231.546 54.8147 447 54.8147C662.454 54.8147 838.572 228.994 838.572 442.057C838.455 543.83 797.633 641.416 725.034 713.476Z" fill="#42673B" fill-opacity="0.04"/>
</svg>
